<?xml version="1.0" encoding="UTF-8" standalone="no"?>
<!-- Created with Inkscape (http://www.inkscape.org/) -->

<svg
   xmlns:dc="http://purl.org/dc/elements/1.1/"
   xmlns:cc="http://creativecommons.org/ns#"
   xmlns:rdf="http://www.w3.org/1999/02/22-rdf-syntax-ns#"
   xmlns:svg="http://www.w3.org/2000/svg"
   xmlns="http://www.w3.org/2000/svg"
   xmlns:sodipodi="http://sodipodi.sourceforge.net/DTD/sodipodi-0.dtd"
   xmlns:inkscape="http://www.inkscape.org/namespaces/inkscape"
   width="36.175911mm"
   height="51.663631mm"
   viewBox="0 0 36.175911 51.663631"
   version="1.1"
   id="svg8"
   inkscape:version="0.92.4 (unknown)"
   sodipodi:docname="archeaopteryx-hatching.svg">
  <defs
     id="defs2">
    <clipPath
       clipPathUnits="userSpaceOnUse"
       id="clipPath1105">
      <path
         style="fill:none;stroke:#000000;stroke-width:0.26458332px;stroke-linecap:butt;stroke-linejoin:miter;stroke-opacity:1"
         d="m 157.22516,116.76261 5.74425,-3.13322 2.43695,2.78508 3.65543,-3.30729 3.13322,1.39255 2.78509,-2.61102 2.43695,0.69627 3.13322,-9.74781 -22.45477,1.21848 z"
         id="path1107"
         inkscape:connector-curvature="0" />
    </clipPath>
    <clipPath
       clipPathUnits="userSpaceOnUse"
       id="clipPath1109">
      <path
         style="fill:none;stroke:#000000;stroke-width:0.26458332px;stroke-linecap:butt;stroke-linejoin:miter;stroke-opacity:1"
         d="m 110.8813,93.166393 5.74425,-3.133225 2.43695,2.785089 3.65543,-3.307292 3.13322,1.392545 2.78509,-2.61102 2.43695,0.69627 6.15374,6.381345 1.59345,5.559145 -0.0882,6.85885 -5.57302,12.01936 -20.86706,0.27455 -6.08941,-11.68468 -1.58784,-8.616354 z"
         id="path1111"
         inkscape:connector-curvature="0"
         sodipodi:nodetypes="ccccccccccccccc" />
    </clipPath>
    <clipPath
       clipPathUnits="userSpaceOnUse"
       id="clipPath1115">
      <rect
         style="opacity:1;fill:#93ac93;fill-opacity:1;stroke:#93ac93;stroke-width:0.05;stroke-miterlimit:9.79310322;stroke-dasharray:none;stroke-opacity:1"
         id="rect1117"
         width="30.11376"
         height="40.209702"
         x="-85.657829"
         y="83.592651"
         rx="0.79999942"
         ry="0.79999942"
         transform="scale(-1,1)" />
    </clipPath>
  </defs>
  <sodipodi:namedview
     id="base"
     pagecolor="#ffffff"
     bordercolor="#666666"
     borderopacity="1.0"
     inkscape:pageopacity="0.0"
     inkscape:pageshadow="2"
     inkscape:zoom="1.07"
     inkscape:cx="-25.032394"
     inkscape:cy="-14.685285"
     inkscape:document-units="mm"
     inkscape:current-layer="layer1"
     showgrid="false"
     inkscape:snap-global="false"
     inkscape:window-width="1920"
     inkscape:window-height="1016"
     inkscape:window-x="0"
     inkscape:window-y="27"
     inkscape:window-maximized="1"
     fit-margin-top="0"
     fit-margin-left="0"
     fit-margin-right="0"
     fit-margin-bottom="0" />
  <metadata
     id="metadata5">
    <rdf:RDF>
      <cc:Work
         rdf:about="">
        <dc:format>image/svg+xml</dc:format>
        <dc:type
           rdf:resource="http://purl.org/dc/dcmitype/StillImage" />
        <dc:title></dc:title>
      </cc:Work>
    </rdf:RDF>
  </metadata>
  <g
     inkscape:label="Layer 1"
     inkscape:groupmode="layer"
     id="layer1"
     transform="translate(-103.8518,-69.37864)">
    <ellipse
       style="opacity:1;fill:#c8c4b7;fill-opacity:1;stroke:#c8c4b7;stroke-width:0.05;stroke-miterlimit:9.79310322;stroke-dasharray:none;stroke-opacity:1"
       id="path1119"
       cx="120.7614"
       cy="117.53591"
       rx="16.884594"
       ry="3.4813597" />
    <g
       id="g1085"
       transform="matrix(-1,0,0,1,195.6688,-16.188323)"
       clip-path="url(#clipPath1115)">
      <g
         transform="translate(-10.273715,7.7404699)"
         id="g1489">
        <ellipse
           style="opacity:1;fill:#37c837;fill-opacity:1;stroke:none;stroke-width:0.49999997;stroke-miterlimit:9.79310322;stroke-dasharray:none"
           id="path3056-3"
           cx="-55.946095"
           cy="103.77671"
           rx="0.62724495"
           ry="2.0528016"
           transform="rotate(-73.773466)" />
        <ellipse
           style="opacity:1;fill:#37c837;fill-opacity:1;stroke:none;stroke-width:0.49999997;stroke-miterlimit:9.79310322;stroke-dasharray:none"
           id="path3056-7-6"
           cx="-84.577377"
           cy="78.697182"
           rx="0.62724495"
           ry="2.0528016"
           transform="rotate(-92.935976)" />
        <path
           style="fill:none;stroke:#000000;stroke-width:0.26458332px;stroke-linecap:butt;stroke-linejoin:miter;stroke-opacity:1"
           d="m 77.337753,82.146153 c 0,0 1.542776,-1.00826 2.166847,-1.25449 0.624071,-0.24623 1.482577,-0.34214 1.482577,-0.34214"
           id="path3073-7"
           inkscape:connector-curvature="0"
           sodipodi:nodetypes="czc" />
        <path
           style="fill:none;stroke:#000000;stroke-width:0.26458332px;stroke-linecap:butt;stroke-linejoin:miter;stroke-opacity:1"
           d="m 78.942425,82.218853 c 0,0 1.030032,-0.37277 1.654103,-0.43398 0.624071,-0.0612 1.575089,0.30544 1.575089,0.30544"
           id="path3073-5-5"
           inkscape:connector-curvature="0"
           sodipodi:nodetypes="czc" />
      </g>
      <path
         inkscape:connector-curvature="0"
         id="path1539"
         d="m 60.240625,103.00601 c -0.14686,-0.17696 -0.06938,-0.3048 0.475287,-0.78423 0.613587,-0.54011 2.313029,-1.60563 3.966792,-2.487106 0.406376,-0.216603 0.738864,-0.478758 0.738864,-0.582562 0,-0.103806 -0.02765,-0.188738 -0.06144,-0.188738 -0.03379,0 -0.841261,0.287774 -1.794381,0.639498 -3.777734,1.394068 -6.311034,1.969938 -7.179095,1.631928 -0.60229,-0.23452 -0.873935,-0.75646 -0.687578,-1.321128 0.190989,-0.578698 1.545077,-1.912902 3.037544,-2.992929 0.619236,-0.448114 2.360842,-2.027256 3.870235,-3.509208 3.707368,-3.639965 4.248261,-3.967498 6.352627,-3.846764 1.351042,0.07751 2.431473,0.574688 3.442052,1.583912 1.033504,1.032119 1.36218,1.977742 1.297617,3.733353 -0.05786,1.573292 -0.254016,2.060075 -1.28451,3.187597 -0.873556,0.955813 -1.441704,1.249212 -3.402322,1.757013 -1.217242,0.315264 -2.154462,0.704504 -4.364797,1.812754 -2.969305,1.48879 -4.031993,1.81833 -4.406894,1.36661 z"
         style="opacity:1;fill:#502d16;fill-opacity:1;stroke:none;stroke-width:0.10638298;stroke-miterlimit:9.79310322;stroke-dasharray:none;stroke-opacity:1" />
      <ellipse
         ry="1.0264008"
         rx="0.5132004"
         cy="93.717468"
         cx="65.994186"
         id="path3054"
         style="opacity:1;fill:#000000;fill-opacity:1;stroke:#000000;stroke-width:0.5;stroke-miterlimit:9.79310322;stroke-dasharray:none" />
      <ellipse
         transform="matrix(0.81321719,0.5819603,-0.64926962,0.76055832,0,0)"
         ry="0.46206427"
         rx="0.17163211"
         cy="47.949715"
         cx="108.49501"
         id="path3052"
         style="opacity:1;fill:#000000;fill-opacity:1;stroke:#000000;stroke-width:0.37226278;stroke-miterlimit:9.79310322;stroke-dasharray:none" />
      <g
         transform="translate(111.06708,-33.414687)"
         id="g1553">
        <path
           style="opacity:1;fill:#502d16;fill-opacity:1;stroke:#502d16;stroke-width:0.3035765;stroke-miterlimit:9.79310322;stroke-dasharray:none;stroke-opacity:1"
           d="m -100.74472,622.07904 c -3.33223,-0.65177 -6.05157,-1.55049 -8.93561,-2.95313 -2.77727,-1.35073 -9.50259,-6.72012 -14.55626,-11.62151 l -4.05447,-3.9323 -0.38373,-9.03614 c -0.48883,-11.51117 -1.45615,-25.62654 -2.21551,-32.32932 -1.33271,-11.76353 -2.44526,-16.14394 -5.70172,-22.44904 -1.94664,-3.76906 -6.08116,-9.34327 -7.24635,-9.76963 -0.97574,-0.35704 -5.2009,-4.27251 -7.21747,-6.68845 -1.10553,-1.32448 -2.00825,-2.98612 -2.53552,-4.66718 -0.74335,-2.36992 -2.71247,-13.17087 -3.34629,-18.35495 l -0.25552,-2.08989 1.71148,-0.46085 c 2.70349,-0.72798 5.47901,-2.2982 7.65175,-4.3289 2.1648,-2.02327 5.24906,-6.13573 5.6974,-7.59673 0.54249,-1.76784 0.86204,-0.84024 1.36809,3.97139 1.08687,10.33424 3.13856,19.74701 5.28567,24.24967 3.54099,7.42575 16.45145,20.43771 26.83328,27.04423 10.887708,6.92845 19.167101,17.14321 25.761053,31.7829 2.165839,4.80853 5.034996,13.46101 5.666875,17.08952 0.946888,5.43743 -0.332293,16.98787 -2.398718,21.65936 -1.251498,2.82921 -4.170635,6.72326 -5.98,7.97716 -3.810145,2.64043 -9.57684,3.59357 -15.14843,2.50379 z"
           id="path1541"
           inkscape:connector-curvature="0"
           transform="scale(0.26458333)" />
        <path
           style="opacity:1;fill:#37c837;fill-opacity:1;stroke:#37c837;stroke-width:0.24702795;stroke-miterlimit:9.79310322;stroke-dasharray:none;stroke-opacity:1"
           d="m -131.96995,598.31171 c -6.85326,-11.21003 -9.41505,-16.55661 -11.58739,-24.18343 -1.91507,-6.72356 -2.32456,-9.26895 -2.49721,-15.52245 -0.18767,-6.79758 0.14603,-9.01404 1.98778,-13.20293 2.8048,-6.37927 2.91104,-10.93334 0.33389,-14.31216 -1.18725,-1.55656 -0.2917,-1.3296 1.22008,0.30921 3.18345,3.45094 6.95503,10.07436 8.59174,15.08827 2.24637,6.88156 3.66877,19.84801 4.938,45.01416 0.28703,5.69114 0.47411,10.76467 0.41574,11.2745 -0.0914,0.79802 -0.56476,0.17681 -3.40263,-4.46517 z"
           id="path1549"
           inkscape:connector-curvature="0"
           transform="scale(0.26458333)" />
      </g>
      <path
         inkscape:connector-curvature="0"
         id="path2232"
         d="m 90.009662,125.12023 c -0.306008,-0.33254 -1.278741,-1.18908 -2.161628,-1.90343 -1.302154,-1.05357 -1.8155,-1.5375 -2.718771,-2.56299 -0.612436,-0.69531 -2.164269,-2.3058 -3.448517,-3.57887 l -2.334995,-2.31469 0.39399,-0.59251 c 0.513662,-0.77247 0.962837,-1.67079 1.139794,-2.2795 0.165684,-0.56993 0.120726,-0.95081 -0.185597,-1.57237 -0.246665,-0.50052 -1.521014,-2.11014 -2.750122,-3.47367 -1.087061,-1.20594 -1.658744,-2.00309 -2.535215,-3.5351 -0.486925,-0.85111 -0.759517,-1.44156 -0.918117,-1.9887 -0.526153,-1.815119 -0.904979,-4.246007 -0.785673,-5.041591 0.07693,-0.513038 0.174958,-0.340122 0.251606,0.443833 0.159848,1.634927 0.741373,4.279938 1.17553,5.346788 0.490441,1.20515 1.584333,2.6047 3.470029,4.43964 1.332065,1.2962 2.213674,2.02038 3.640716,2.99055 1.372078,0.93282 2.129933,1.55476 3.019327,2.47785 2.19564,2.27883 4.006882,5.58784 5.12315,9.35962 0.340235,1.14962 0.418265,1.8215 0.351157,3.02362 -0.0331,0.59299 -0.08496,1.14296 -0.115236,1.22216 -0.0434,0.11352 -0.172786,0.0161 -0.611428,-0.46064 z"
         style="opacity:1;fill:#a05a2c;fill-opacity:1;stroke:#a05a2c;stroke-width:0.01633987;stroke-miterlimit:9.79310322;stroke-dasharray:none;stroke-opacity:1" />
    </g>
    <path
       style="opacity:1;fill:#ffe680;fill-opacity:1;stroke:#502d16;stroke-width:0.21474588;stroke-miterlimit:9.79310322;stroke-dasharray:none;stroke-opacity:1"
       d=""
       id="path2121"
       inkscape:connector-curvature="0"
       transform="scale(0.26458333)" />
    <path
       style="opacity:1;fill:#93ac93;fill-opacity:1;stroke:#93ac93;stroke-width:0.03989821;stroke-miterlimit:9.79310322;stroke-dasharray:none;stroke-opacity:1"
       d="m 137.58838,105.04481 c 0,7.8205 -6.75437,14.16026 -15.0863,14.16026 -8.33193,0 -15.0863,-6.33976 -15.0863,-14.16026 0,-7.820496 6.48978,-21.833179 14.82172,-21.833179 8.33193,0 15.35088,14.012683 15.35088,21.833179 z"
       id="path1051"
       inkscape:connector-curvature="0"
       sodipodi:nodetypes="sssss"
       clip-path="url(#clipPath1109)"
       transform="translate(-1.7406798,-0.69627193)" />
    <path
       style="opacity:1;fill:#93ac93;fill-opacity:1;stroke:#93ac93;stroke-width:0.03989821;stroke-miterlimit:9.79310322;stroke-dasharray:none;stroke-opacity:1"
       d="m 183.93224,128.64103 c 0,7.8205 -6.75437,14.16026 -15.0863,14.16026 -8.33193,0 -15.0863,-6.33976 -15.0863,-14.16026 0,-7.8205 6.48978,-21.83318 14.82172,-21.83318 8.33193,0 15.35088,14.01268 15.35088,21.83318 z"
       id="path1051-6"
       inkscape:connector-curvature="0"
       sodipodi:nodetypes="sssss"
       clip-path="url(#clipPath1105)"
       transform="rotate(-9.4473223,-79.762946,361.65148)" />
  </g>
</svg>
