<?xml version="1.0" encoding="UTF-8" standalone="no"?>
<!-- Created with Inkscape (http://www.inkscape.org/) -->

<svg
   width="627.2066"
   height="677.00177"
   viewBox="0 0 165.9484 179.12338"
   version="1.1"
   id="svg5"
   inkscape:version="1.1.1 (3bf5ae0d25, 2021-09-20)"
   sodipodi:docname="bash_finding_duplicates.svg"
   xmlns:inkscape="http://www.inkscape.org/namespaces/inkscape"
   xmlns:sodipodi="http://sodipodi.sourceforge.net/DTD/sodipodi-0.dtd"
   xmlns="http://www.w3.org/2000/svg"
   xmlns:svg="http://www.w3.org/2000/svg">
  <sodipodi:namedview
     id="namedview7"
     pagecolor="#ffffff"
     bordercolor="#666666"
     borderopacity="1.0"
     inkscape:pageshadow="2"
     inkscape:pageopacity="0.0"
     inkscape:pagecheckerboard="0"
     inkscape:document-units="mm"
     showgrid="false"
     inkscape:snap-global="false"
     inkscape:zoom="0.51316815"
     inkscape:cx="299.12223"
     inkscape:cy="559.27088"
     inkscape:window-width="1920"
     inkscape:window-height="1011"
     inkscape:window-x="0"
     inkscape:window-y="0"
     inkscape:window-maximized="1"
     inkscape:current-layer="layer1"
     units="px"
     fit-margin-top="0"
     fit-margin-left="0"
     fit-margin-right="0"
     fit-margin-bottom="0" />
  <defs
     id="defs2">
    <rect
       x="420.00616"
       y="449.53165"
       width="22.693588"
       height="37.354046"
       id="rect7290" />
  </defs>
  <g
     inkscape:label="Layer 1"
     inkscape:groupmode="layer"
     id="layer1"
     transform="translate(1.2903123,-0.43569914)">
    <rect
       style="fill:#dbe3de;stroke:none;stroke-width:0.793287;stroke-miterlimit:4;stroke-dasharray:none"
       id="rect11179"
       width="165.94841"
       height="179.12338"
       x="-1.2903123"
       y="0.43569914" />
    <rect
       style="fill:#16502d;stroke:none;stroke-width:0.709884"
       id="rect846"
       width="162.84488"
       height="93.010628"
       x="0.80988818"
       y="42.192451"
       rx="3.5494258"
       ry="3.5494258" />
    <rect
       style="fill:#1a1a1a;stroke:none;stroke-width:0.709884"
       id="rect1604"
       width="24.52343"
       height="8.0679522"
       x="8.4384375"
       y="124.81197" />
    <rect
       style="fill:#e6e6e6;stroke:none;stroke-width:0.709884"
       id="rect1730"
       width="19.146542"
       height="3.4559474"
       x="68.497528"
       y="129.90245" />
    <rect
       style="fill:#e6e6e6;stroke:none;stroke-width:0.585522"
       id="rect1730-7"
       width="13.025724"
       height="3.4559474"
       x="95.512939"
       y="129.66411" />
    <path
       style="fill:#800000;stroke:none;stroke-width:0.139105px;stroke-linecap:butt;stroke-linejoin:miter;stroke-opacity:1"
       d="m 142.10259,120.9607 c 0,0 -2.23842,-0.83029 -3.49564,-0.79619 -1.21881,0.0331 -2.21542,0.65703 -2.9002,1.66583 -0.98624,1.45291 -1.03607,3.3505 -0.62182,5.05697 0.3779,1.55683 0.64883,2.88124 1.8893,3.89505 1.39245,1.138 3.35892,1.3982 5.14182,1.63323 1.21546,0.16025 3.08141,0.1773 4.26288,-0.14996 0.94565,-0.26205 1.74878,-0.42539 2.45009,-1.11176 1.33767,-1.30917 2.47272,-3.03479 2.77396,-4.88212 0.28677,-1.7586 0.21016,-3.96388 -1.02742,-5.2458 -1.08783,-1.12676 -3.04072,-1.37244 -4.57637,-1.06469 -0.81721,0.16382 -2.96221,1.12449 -2.96221,1.12449 z"
       id="path9033"
       sodipodi:nodetypes="csssssssssscc" />
    <rect
       style="fill:#784421;stroke:none;stroke-width:0.39852"
       id="rect1274"
       width="164.30896"
       height="4.8201151"
       x="0.25947711"
       y="131.40036" />
    <path
       style="fill:#e6e6e6;stroke:none;stroke-width:0.709884"
       id="path1963"
       d="m 76.138786,88.632101 c -1.250478,0.225016 -2.517451,0.08394 -3.777978,0.138783 -2.408081,0.223951 -4.809614,1.628867 -6.00215,3.739265 -0.327715,0.753807 -0.80559,1.598552 -0.511214,2.424501 0.459826,0.765242 1.509816,0.669175 2.284918,0.706199 1.888502,0.07084 3.778486,0.02628 5.665452,0.139315 0.885992,0.08927 1.816851,0.139489 2.613017,0.576354 0.324152,0.21346 0.433049,0.521052 0.388112,0.896377 -0.116953,0.52391 -0.521285,0.801588 -0.937062,1.088101 -1.041099,0.557391 -2.507439,1.642998 2.162554,-1.266989 0.168598,-0.105069 -0.361561,0.164324 -0.54466,0.24123 -0.376398,0.157948 -1.099752,0.437943 -1.47362,0.584115 -0.993769,0.398312 -1.988422,0.795079 -2.997641,1.152903 -0.410372,0.157232 -0.841694,0.23296 -1.274056,0.297611 -0.642952,0.122634 -1.295278,0.175347 -1.948824,0.1902 -0.242754,0.0088 -0.484731,-0.0059 -0.726375,-0.02662 0,0 -2.872225,2.043514 -2.872225,2.043514 v 0 c 0.251121,0.0286 0.502667,0.0604 0.756119,0.0534 0.657363,-7.5e-4 1.317583,-0.0377 1.966981,-0.14288 0.445633,-0.0684 0.898827,-0.1118 1.328126,-0.25719 1.031499,-0.35217 2.038948,-0.77104 3.049735,-1.17771 2.050513,-0.792787 4.077756,-1.624059 5.844767,-2.993828 0.439933,-0.363337 0.766089,-0.783376 0.806498,-1.376006 -0.02183,-0.494289 -0.164515,-0.915533 -0.573462,-1.222966 -0.829074,-0.510159 -1.816417,-0.585253 -2.765996,-0.669725 -1.883154,-0.113757 -3.769741,-0.07295 -5.654291,-0.15298 -0.584959,-0.02694 -1.570386,0.0969 -2.013551,-0.382241 -0.216499,-0.710383 0.344139,-1.510277 0.611456,-2.132456 0.299353,-0.448399 0.326987,-0.540631 0.730558,-0.926187 0.157506,-0.150495 0.697734,-0.51298 0.500855,-0.419773 -4.770867,2.259011 -2.455555,1.231739 -1.21027,1.071695 1.255927,-0.09619 2.508846,0.08607 3.758432,-0.09956 0,0 2.815795,-2.096501 2.815795,-2.096501 z" />
    <g
       id="g7969"
       transform="matrix(1.7747119,0,0,1.7747119,-66.626696,-142.74017)">
      <path
         style="fill:#e6e6e6;stroke:none;stroke-width:0.4"
         id="path2966"
         d="m 84.759838,125.51254 c 0.05469,0.58466 0.04961,1.17969 -0.0085,1.76411 -0.04735,0.55966 0.01633,1.12208 0.0409,1.68198 0.02302,0.58838 -0.0181,1.17838 -0.06768,1.76459 -0.02286,0.36245 -0.0848,0.72115 -0.0959,1.08432 -0.01693,0.34516 0.04336,0.6851 0.06769,1.02825 0.0204,0.39552 0.05507,0.79015 0.08772,1.1848 0.02103,0.34771 -0.02661,0.69146 -0.01093,1.03908 -0.04208,0.71403 -0.05349,1.42668 -0.03672,2.14164 0.004,0.48124 0.03624,0.96131 0.04519,1.44245 0,0 1.749733,-0.89841 1.749733,-0.89841 v 0 c -0.0208,-0.47792 -0.0577,-0.9553 -0.0579,-1.43396 -0.015,-0.71837 0.019,-1.43356 0.0564,-2.15083 0.004,-0.35073 0.046,-0.70092 0.008,-1.05154 -0.0315,-0.39422 -0.0651,-0.78836 -0.0865,-1.1833 -0.0245,-0.33728 -0.0775,-0.67317 -0.0501,-1.01218 0.0186,-0.35758 0.0624,-0.71314 0.0834,-1.07061 0.0386,-0.59313 0.0905,-1.18831 0.0529,-1.78278 -0.022,-0.55268 -0.0746,-1.10793 -0.027,-1.66025 0.0474,-0.60225 0.0471,-1.21079 -0.001,-1.81291 0,0 -1.749251,0.92555 -1.749251,0.92555 z" />
      <path
         style="fill:#e6e6e6;stroke:none;stroke-width:0.4"
         id="path2968"
         d="m 87.034731,131.7686 c 0.17301,-0.43288 0.32657,-0.87092 0.70378,-1.16258 0.69974,-0.30515 0.0977,-0.0486 -1.46239,0.86801 -0.0495,0.0291 0.10454,-0.0481 0.15881,-0.0669 0.0427,-0.0148 0.36645,-0.12034 0.38129,-0.12519 0.4963,-0.13554 0.97833,-0.31416 1.46704,-0.47314 0.52422,-0.18533 1.07807,-0.25811 1.6267,-0.33121 0.49989,-0.0481 0.95717,0.0219 1.34808,0.34272 0.42142,0.5417 0.14274,1.33087 0.0459,1.95002 -0.0976,0.50937 -0.1324,1.0291 -0.23597,1.53708 -0.0559,0.32051 -0.12256,0.63864 -0.12008,0.96498 0.0239,0.21406 0.006,0.42137 -0.0336,0.63137 0.002,0.29742 -0.12475,0.57599 -0.15909,0.86488 0.001,0.21934 -0.0314,0.4323 -0.0103,0.65082 -0.004,0.16892 0.053,0.32914 0.0846,0.49326 0.0184,0.10146 0.0263,0.20424 0.0275,0.30722 0.0245,0.1151 0.0653,0.22562 0.0976,0.33857 0.009,0.0927 0.0337,0.1769 0.06,0.26586 0.0282,0.0909 0.0426,0.18379 0.0226,0.27709 -0.007,0.0457 -8e-4,0.0242 -0.016,0.0647 0,0 1.79506,-0.87192 1.79506,-0.87192 v 0 c 0.004,-0.0581 0.002,-0.0298 0.006,-0.0846 -0.002,-0.1152 -0.0255,-0.22836 -0.0583,-0.33856 -0.0244,-0.0891 -0.0318,-0.18117 -0.0596,-0.26949 -0.0302,-0.0961 -0.0687,-0.19256 -0.0737,-0.29401 -0.007,-0.11243 -0.0232,-0.22404 -0.0458,-0.33439 -0.0336,-0.1556 -0.0762,-0.30939 -0.0744,-0.47015 -0.0102,-0.20197 0.0156,-0.40552 0.0302,-0.60666 0.0666,-0.28602 0.11915,-0.57387 0.15868,-0.86505 0.0327,-0.21924 0.0308,-0.43708 0.0176,-0.65816 0.009,-0.31448 0.079,-0.62245 0.13066,-0.93196 0.0848,-0.50769 0.11827,-1.02294 0.20797,-1.53015 0.10537,-0.70081 0.36443,-1.52552 -0.12283,-2.13199 -0.40971,-0.3818 -0.89193,-0.50339 -1.45135,-0.47165 -0.55135,0.056 -1.11202,0.12417 -1.64061,0.29485 -0.49067,0.15142 -0.96552,0.34624 -1.46503,0.47027 -0.88875,0.28322 -1.77216,0.59322 -2.47099,1.28372 -0.325351,0.35126 -0.47616,0.81069 -0.667504,1.24203 0,0 1.797184,-0.82964 1.797184,-0.82964 z" />
    </g>
    <text
       xml:space="preserve"
       transform="scale(0.26458333)"
       id="text7288"
       style="font-size:21.3333px;line-height:1.25;font-family:'DejaVu Sans';-inkscape-font-specification:'DejaVu Sans, Normal';letter-spacing:0px;word-spacing:0px;white-space:pre;shape-inside:url(#rect7290)" />
    <path
       style="fill:#e6e6e6;stroke:none;stroke-width:0.709884"
       id="path7805"
       d="m 59.694845,90.495654 c -1.808714,-0.739734 -3.862082,-0.670538 -5.781509,-0.588884 -2.04285,0.218112 -4.093787,0.423394 -6.080861,0.962018 -3.239071,1.285634 -4.980163,1.985374 -5.642468,5.148384 0.03395,1.339269 0.872638,2.344549 1.787598,3.234555 0.749825,0.699522 1.631558,1.227603 2.584533,1.595433 1.0581,0.39746 2.200336,0.42323 3.31691,0.41292 2.686531,-0.499 4.950428,-2.188259 7.221915,-3.584457 1.410551,-1.253866 2.440351,-2.62038 2.820962,-4.481393 0.122844,-1.096946 0.372552,-2.302956 0.05878,-3.393019 -0.948261,-1.125575 -0.392348,-0.606083 -3.123747,2.025993 -0.13321,0.128312 0.03803,0.368043 0.05784,0.55197 0.07443,0.690841 0.172769,1.373718 0.284794,2.059433 0.333852,1.614257 0.610112,3.238929 0.949585,4.852044 0.127975,0.604564 0.290596,1.210979 0.574772,1.762709 0.212607,0.35021 0.623016,0.517 0.973889,0.69873 0.335777,0.18399 0.670719,0.36966 1.004458,0.5575 0.237329,0.15618 0.501357,0.25763 0.765434,0.35794 0.145667,0.064 0.29638,0.0813 0.453193,0.0839 0,0 2.839834,-2.11077 2.839834,-2.11077 v 0 c -0.120201,0.031 -0.245247,0.0719 -0.368568,0.0416 -0.252622,-0.0701 -0.504593,-0.16168 -0.728378,-0.29863 -0.338356,-0.19418 -0.690144,-0.36159 -1.023108,-0.566344 -0.288376,-0.141262 -0.640207,-0.279979 -0.853364,-0.517364 -0.281641,-0.516421 -0.431352,-1.091465 -0.567719,-1.660103 -0.381217,-1.594489 -0.680795,-3.206126 -0.959292,-4.821481 -0.103679,-0.681123 -0.198956,-1.360106 -0.253985,-2.04724 -0.0149,-0.185847 0.142065,-0.613748 -0.03592,-0.558183 -3.262582,1.018579 -2.60188,2.593687 -3.081835,1.284307 0.352479,0.999552 0.02465,2.191126 -0.08451,3.19812 -0.445015,1.737107 -1.507811,3.124412 -2.898655,4.249544 5.026242,-2.634649 0.05952,0.05765 -1.212326,0.260411 -1.083648,0.0422 -2.192988,0.04239 -3.230853,-0.31452 -0.93024,-0.315716 -1.789373,-0.803708 -2.522529,-1.462977 -0.836976,-0.788245 -1.654962,-1.699915 -1.617496,-2.920699 0.165208,-0.69225 0.363845,-1.361206 0.810943,-1.93607 0.155838,-0.200368 0.772219,-0.638437 0.539228,-0.537703 -0.561099,0.242585 -3.73447,2.070197 -1.573679,0.94161 1.97303,-0.604772 4.033296,-0.800345 6.074212,-1.056684 1.466617,-0.08004 3.584756,-0.143752 5.021913,0.25542 0.199426,0.0554 0.380798,0.162381 0.571199,0.243467 0,0 2.928823,-1.921407 2.928823,-1.921407 z" />
    <g
       id="g8599"
       transform="matrix(1.7747119,0,0,1.7747119,-152.78962,-130.64871)">
      <path
         style="fill:#e6e6e6;stroke:none;stroke-width:0.4"
         id="path8004"
         d="m 98.904847,118.47259 c 0.04226,0.61613 0.03507,1.23406 0.0663,1.85056 0.0097,0.85746 0.01696,1.71446 0.03994,2.57173 0.0074,0.95696 -0.0186,1.91345 -0.03855,2.87002 -0.0071,0.58387 -0.0185,1.16755 -0.07285,1.74915 -0.05117,0.37645 -0.09565,0.75399 -0.132797,1.13211 0.0021,0.37935 0.02527,0.75932 0.03383,1.13923 0.0079,0.36065 0.01363,0.72121 0.01344,1.08195 -0.0076,0.33064 0.05033,0.65737 0.126564,0.9777 0.04199,0.18805 0.02225,0.0927 0.05901,0.28598 0,0 1.748926,-0.93344 1.748926,-0.93344 v 0 c -0.0388,-0.19901 -0.0188,-0.10072 -0.0597,-0.2949 -0.0713,-0.30566 -0.12552,-0.61555 -0.11763,-0.93098 -0.001,-0.36406 0.01,-0.72846 -0.007,-1.09219 -0.0165,-0.37216 -0.0463,-0.74627 -0.0206,-1.11833 0.0318,-0.3796 0.0755,-0.75795 0.12972,-1.13502 0.0279,-0.58025 0.0261,-1.16104 0.0378,-1.74174 0.0265,-0.95735 0.0212,-1.91409 0.0265,-2.87186 10e-4,-0.86221 -0.0306,-1.72432 -0.0206,-2.58677 -0.013,-0.61947 -0.049,-1.23826 -0.0545,-1.85794 0,0 -1.757516,0.90474 -1.757516,0.90474 z" />
      <path
         style="fill:#e6e6e6;stroke:none;stroke-width:0.4"
         id="path8351"
         d="m 101.80175,125.00877 c 0.22971,-0.21566 0.48723,-0.40079 0.7431,-0.58388 0.0876,-0.0627 0.35945,-0.23693 0.26618,-0.18311 -1.61095,0.92941 -1.90719,1.00308 -1.14146,0.75573 0.55338,-0.12889 1.12475,-0.0891 1.68601,-0.0477 0.48249,0.0229 0.88902,0.29945 1.32146,0.48826 0.40466,0.18309 0.86299,0.31541 1.05911,0.74209 0.20576,0.59395 0.46887,1.17195 0.67491,1.76971 0.10849,0.42204 0.12601,0.84046 -0.0934,1.22581 -0.14377,0.2581 -0.30735,0.50026 -0.52379,0.70231 -0.0255,0.0381 -0.0485,0.078 -0.0764,0.11423 -0.13346,0.17313 -0.30197,0.26992 -0.48803,0.37973 -0.0794,0.0469 -0.31886,0.18566 -0.23907,0.13938 0.48496,-0.28131 0.96971,-0.56297 1.45455,-0.84445 -0.30121,0.16978 -0.60935,0.32592 -0.92659,0.46327 -0.18483,0.0761 -0.36467,0.1635 -0.54791,0.2431 -0.21218,0.0596 -0.41878,0.12201 -0.62098,0.21047 -0.15266,0.0744 -0.31555,0.0813 -0.48163,0.0751 -0.15165,-0.0109 -0.30163,-0.0375 -0.45048,-0.0676 -0.12996,-0.0264 -0.26103,-0.0463 -0.39076,-0.0739 -0.10448,-0.0188 -0.20971,-0.0447 -0.31631,-0.0451 0,0 -1.60029,1.19166 -1.60029,1.19166 v 0 c 0.095,-0.0249 0.18376,-0.0286 0.28173,-0.007 0.13055,0.024 0.25946,0.0572 0.39156,0.073 0.15465,0.0307 0.30858,0.0649 0.46495,0.086 0.17798,0.0216 0.36114,0.0401 0.5371,-0.004 0.20803,-0.0716 0.3918,-0.19977 0.61825,-0.21519 0.19522,-0.0562 0.37141,-0.15573 0.55812,-0.23466 0.323,-0.14025 0.64553,-0.28037 0.95112,-0.45705 0.93445,-0.5381 2.00266,-0.95539 2.71452,-1.79074 0.19689,-0.23035 0.36006,-0.48609 0.49171,-0.75923 0.16769,-0.44359 0.15002,-0.9047 0.0129,-1.35735 -0.22265,-0.59848 -0.48631,-1.18328 -0.67485,-1.79303 -0.25514,-0.51486 -0.63753,-0.63408 -1.14335,-0.85622 -0.45047,-0.19163 -0.86425,-0.49682 -1.35881,-0.54134 -0.57258,-0.046 -1.15348,-0.10079 -1.7239,-0.005 -1.21941,0.2399 -2.32172,1.15198 -3.253233,1.96918 0,0 1.823983,-0.76231 1.823983,-0.76231 z" />
    </g>
    <circle
       id="path8353"
       style="fill:#e6e6e6;stroke:#000000;stroke-width:0.259913"
       cx="11.390662"
       cy="68.380791"
       r="0.024915613" />
    <ellipse
       style="fill:#00aa00;stroke:none;stroke-width:0.376086"
       id="path10727"
       cx="174.39703"
       cy="57.0891"
       rx="3.6016841"
       ry="1.5297673"
       transform="rotate(22.021351)" />
    <path
       style="fill:none;stroke:#552200;stroke-width:1.41977;stroke-linecap:butt;stroke-linejoin:miter;stroke-miterlimit:4;stroke-dasharray:none;stroke-opacity:1"
       d="m 143.21255,121.19606 c 0,0 0.31175,-2.75416 1.22401,-3.66211 0.4969,-0.49455 1.99786,-0.65728 1.99786,-0.65728"
       id="path10864"
       sodipodi:nodetypes="csc" />
  </g>
</svg>
